<?xml version="1.0" encoding="UTF-8"?>
<svg width="256px" height="256px" viewBox="0 0 256 256" version="1.1" xmlns="http://www.w3.org/2000/svg" xmlns:xlink="http://www.w3.org/1999/xlink">
    <!-- Generator: Sketch 47 (45396) - http://www.bohemiancoding.com/sketch -->
    <title>github</title>
    <desc>Created with Sketch.</desc>
    <defs></defs>
    <g id="Icons" stroke="none" stroke-width="1" fill="none" fill-rule="evenodd">
        <g id="github" fill="#464E4F">
            <path d="M128.001684,0 C198.692155,0 256.001248,57.3048541 256.001248,127.999564 C256.001248,184.534984 219.371502,232.498521 168.540073,249.443038 C162.051811,250.699993 159.747746,246.708684 159.747746,243.302399 C159.747746,239.084287 159.896122,225.300175 159.896122,208.175488 C159.896122,196.233356 155.805189,188.443626 151.214018,184.471394 C179.71701,181.302511 209.661366,170.477437 209.661366,121.314175 C209.661366,107.339294 204.695016,95.9207161 196.487714,86.9566981 C197.816738,83.7305842 202.200183,70.7137872 195.232879,53.0825027 C195.232879,53.0825027 184.49895,49.6423038 160.067814,66.2031628 C149.838363,63.3670654 138.87975,61.9447773 128.001684,61.8960253 C117.123618,61.9447773 106.173484,63.3670654 95.9631092,66.2031628 C71.5022986,49.6423038 60.7535316,53.0825027 60.7535316,53.0825027 C53.8031851,70.7137872 58.1845106,83.7305842 59.5135338,86.9566981 C51.3253093,95.9207161 46.3250448,107.339294 46.3250448,121.314175 C46.3250448,170.360856 76.2121704,181.336426 104.643094,184.573138 C100.982451,187.767457 97.6651916,193.418455 96.516339,201.689346 C89.2120103,204.959973 70.684112,210.61733 59.2676539,191.048682 C59.2676539,191.048682 52.4995978,178.758926 39.6460141,177.858073 C39.6460141,177.858073 27.1570109,177.694859 38.7705968,185.639324 C38.7705968,185.639324 47.1601886,189.573402 52.9828789,204.368589 C52.9828789,204.368589 60.4970534,227.214223 96.1072457,219.471126 C96.1623567,230.166902 96.2810574,240.250097 96.2810574,243.302399 C96.2810574,246.683248 93.9324804,250.644882 87.5353637,249.459995 C36.6763784,232.534556 0,184.554061 0,127.999564 C0,57.3048541 57.317572,0 128.001684,0 Z M48.4807332,183.780387 C48.1988192,184.418403 47.1983423,184.607052 46.286891,184.170403 C45.3584824,183.752831 44.8370475,182.885893 45.1380384,182.247877 C45.4135934,181.592904 46.4161899,181.412733 47.3424788,181.847262 C48.2730071,182.266954 48.8029207,183.142371 48.4807332,183.780387 Z M53.6654076,189.562804 C53.0549472,190.128752 51.8615818,189.865914 51.0518739,188.97142 C50.2146104,188.079046 50.057756,186.885681 50.6766951,186.311254 C51.3062324,185.745306 52.4635636,186.010263 53.3029467,186.902638 C54.1402102,187.80561 54.3034236,188.990497 53.6654076,189.562804 Z M58.7123045,196.934962 C57.9280324,197.479713 56.6456416,196.968876 55.8528909,195.830622 C55.0686188,194.692367 55.0686188,193.32731 55.8698481,192.780439 C56.6647185,192.233568 57.9280324,192.725328 58.7313814,193.855104 C59.5135338,195.010315 59.5135338,196.377492 58.7123045,196.934962 Z M65.6266168,204.057 C64.9250113,204.830674 63.430655,204.622948 62.3369134,203.56736 C61.2177359,202.535088 60.9061467,201.070407 61.6098719,200.296733 C62.3199561,199.52094 63.822791,199.739264 64.9250113,200.786373 C66.0357101,201.816525 66.3748548,203.291805 65.6266168,204.057 Z M75.1650612,208.192446 C74.8555917,209.195042 73.4163464,209.650768 71.9665029,209.224717 C70.518779,208.785949 69.5712935,207.61166 69.8638058,206.598466 C70.1647967,205.58951 71.6104009,205.114708 73.0708428,205.570433 C74.516447,206.007082 75.4660521,207.172892 75.1650612,208.192446 Z M85.6403928,208.95976 C85.6764269,210.015348 84.4470274,210.890765 82.9251156,210.907723 C81.3947252,210.943757 80.1568471,210.089536 80.1398899,209.050906 C80.1398899,207.984719 81.3417338,207.117781 82.8721242,207.092345 C84.394036,207.06267 85.6403928,207.910532 85.6403928,208.95976 Z M95.3886829,207.300071 C95.5709732,208.330223 94.5132657,209.387931 93.0019522,209.667725 C91.5160745,209.94116 90.1404188,209.305264 89.9517696,208.283591 C89.7673597,207.228003 90.8441441,206.170295 92.3279021,205.89686 C93.8413353,205.634023 95.1957944,206.252962 95.3886829,207.300071 Z"></path>
        </g>
    </g>
</svg>