<?xml version="1.0" encoding="UTF-8"?>
<svg width="256px" height="256px" viewBox="0 0 256 256" version="1.1" xmlns="http://www.w3.org/2000/svg" xmlns:xlink="http://www.w3.org/1999/xlink">
    <!-- Generator: Sketch 47 (45396) - http://www.bohemiancoding.com/sketch -->
    <title>bitbucket</title>
    <desc>Created with Sketch.</desc>
    <defs></defs>
    <g id="Icons" stroke="none" stroke-width="1" fill="none" fill-rule="evenodd">
        <g id="bitbucket" fill-rule="nonzero" fill="#205081">
            <path d="M124.8,5.33333333 L124.8,5.33333333 L124.8,5.33333333 C65.0666667,5.33333333 16,21.3333333 16,41.6 C16,46.9333333 28.8,122.666667 34.1333333,152.533333 C36.2666667,166.4 71.4666667,185.6 124.8,185.6 L124.8,185.6 L124.8,185.6 C178.133333,185.6 212.266667,166.4 215.466667,152.533333 C220.8,122.666667 233.6,46.9333333 233.6,41.6 C232.533333,21.3333333 184.533333,5.33333333 124.8,5.33333333 Z M124.8,161.066667 C105.6,161.066667 90.6666667,146.133333 90.6666667,126.933333 C90.6666667,107.733333 105.6,92.8 124.8,92.8 C144,92.8 158.933333,107.733333 158.933333,126.933333 C158.933333,145.066667 144,161.066667 124.8,161.066667 Z M124.8,52.2666667 C86.4,52.2666667 55.4666667,45.8666667 55.4666667,37.3333333 C55.4666667,28.8 86.4,22.4 124.8,22.4 C163.2,22.4 194.133333,28.8 194.133333,37.3333333 C194.133333,45.8666667 163.2,52.2666667 124.8,52.2666667 Z M202.666667,181.333333 C204.8,181.333333 205.866667,183.466667 204.8,185.6 C204.8,185.6 204.8,186.666667 204.8,186.666667 C200.533333,209.066667 197.333333,225.066667 197.333333,227.2 C194.133333,243.2 162.133333,256 123.733333,256 C85.3333333,256 53.3333333,243.2 50.1333333,227.2 C50.1333333,225.066667 46.9333333,209.066667 42.6666667,186.666667 C42.6666667,186.666667 42.6666667,185.6 42.6666667,185.6 C42.6666667,182.4 44.8,181.333333 46.9333333,181.333333 C48,181.333333 50.1333333,182.4 50.1333333,182.4 C50.1333333,182.4 76.8,203.733333 124.8,203.733333 C172.8,203.733333 199.466667,182.4 199.466667,182.4 C199.466667,182.4 200.533333,181.333333 202.666667,181.333333 Z M124.8,142.933333 C115.37434,142.933333 107.733333,135.292326 107.733333,125.866667 C107.733333,116.441007 115.37434,108.8 124.8,108.8 C134.22566,108.8 141.866667,116.441007 141.866667,125.866667 C141.866667,135.292326 134.22566,142.933333 124.8,142.933333 Z" id="Combined-Shape"></path>
        </g>
    </g>
</svg>