<?xml version="1.0" encoding="UTF-8"?>
<svg width="12px" height="14px" viewBox="0 0 12 14" version="1.1" xmlns="http://www.w3.org/2000/svg" xmlns:xlink="http://www.w3.org/1999/xlink">
    <!-- Generator: Sketch 43.1 (39012) - http://www.bohemiancoding.com/sketch -->
    <title>lock</title>
    <desc>Created with Sketch.</desc>
    <defs></defs>
    <g id="Page-1" stroke="none" stroke-width="1" fill="none" fill-rule="evenodd">
        <g id="Icons" transform="translate(-43.000000, -54.000000)" fill-rule="nonzero" fill="#000000">
            <path d="M46.1818,60.3636348 L51.2727043,60.3636348 L51.2727043,58.4545478 C51.2727043,57.0525659 50.1292428,55.909087 48.7272435,55.909087 C47.3252441,55.909087 46.1817826,57.0525485 46.1817826,58.4545478 L46.1817826,60.3636348 L46.1818,60.3636348 Z M54.4545391,61.3181783 L54.4545391,67.0454565 C54.4545391,67.5724504 54.0269895,68 53.4999956,68 L43.9545435,68 C43.4275496,68 43,67.5724504 43,67.0454565 L43,61.3181783 C43,60.7911844 43.4275496,60.3636348 43.9545435,60.3636348 L44.2727304,60.3636348 L44.2727304,58.4545478 C44.2727304,56.0085313 46.2812617,54 48.7272783,54 C51.1732948,54 53.1818261,56.0085313 53.1818261,58.4545478 L53.1818261,60.3636348 L53.5000131,60.3636348 C54.0270069,60.3636348 54.4545565,60.7911844 54.4545565,61.3181783 L54.4545391,61.3181783 Z" id="lock"></path>
        </g>
    </g>
</svg>