<?xml version="1.0" encoding="UTF-8"?>
<svg width="17px" height="14px" viewBox="0 0 17 14" version="1.1" xmlns="http://www.w3.org/2000/svg" xmlns:xlink="http://www.w3.org/1999/xlink">
    <!-- Generator: Sketch 43.1 (39012) - http://www.bohemiancoding.com/sketch -->
    <title>unlock</title>
    <desc>Created with Sketch.</desc>
    <defs></defs>
    <g id="Page-1" stroke="none" stroke-width="1" fill="none" fill-rule="evenodd">
        <g id="Icons" transform="translate(-41.000000, -23.000000)" fill-rule="nonzero" fill="#000000">
            <path d="M57.5454435,27.4545478 L57.5454435,30.0000087 C57.5454435,30.3480202 57.2570985,30.6363652 56.909087,30.6363652 L56.2727304,30.6363652 C55.9247189,30.6363652 55.6363739,30.3480202 55.6363739,30.0000087 L55.6363739,27.4545478 C55.6363739,26.0525659 54.4929124,24.909087 53.090913,24.909087 C51.6889137,24.909087 50.5454522,26.0525485 50.5454522,27.4545478 L50.5454522,29.3636348 L51.4999956,29.3636348 C52.0269895,29.3636348 52.4545391,29.7911844 52.4545391,30.3181783 L52.4545391,36.0454565 C52.4545391,36.5724504 52.0269895,37 51.4999956,37 L41.9545435,37 C41.4275496,37 41,36.5724504 41,36.0454565 L41,30.3181783 C41,29.7911844 41.4275496,29.3636348 41.9545435,29.3636348 L48.6363652,29.3636348 L48.6363652,27.4545478 C48.6363652,24.9985781 50.6349433,23 53.090913,23 C55.5468827,23 57.5454609,24.9985781 57.5454609,27.4545478 L57.5454435,27.4545478 Z" id="unlock"></path>
        </g>
    </g>
</svg>