<?xml version="1.0" encoding="UTF-8"?>
<svg width="111px" height="32px" viewBox="0 0 111 32" version="1.1" xmlns="http://www.w3.org/2000/svg" xmlns:xlink="http://www.w3.org/1999/xlink">
    <!-- Generator: Sketch 43.1 (39012) - http://www.bohemiancoding.com/sketch -->
    <title>craftcms</title>
    <desc>Created with Sketch.</desc>
    <defs></defs>
    <g id="Page-1" stroke="none" stroke-width="1" fill="none" fill-rule="evenodd">
        <g id="Desktop-HD" transform="translate(-30.000000, -15.000000)" fill="#DA5A47">
            <g id="craftcms" transform="translate(30.000000, 15.000000)">
                <g id="craft-cms-logo">
                    <g id="Group">
                        <path d="M55.7646923,13.7173333 L60.5590385,13.7173333 L61.1175962,10.8131556 L56.3239615,10.8131556 L57.1400962,6.56497778 L57.1244423,6.56497778 L53.4884808,9.39022222 L53.21525,10.8124444 L49.4490769,10.8124444 L50.5491154,5.08942222 C50.8081154,2.92977778 54.1281538,3.584 54.6226731,3.7056 L55.1541923,0.947911111 C49.1829615,-1.3248 47.4411154,5.09013333 47.4411154,5.09013333 L46.3403654,10.8145778 L46.3211538,10.8145778 L42.5820192,13.7187556 L45.7825192,13.7187556 L42.2675192,32 L45.3755192,32 L48.8905192,13.7173333 L52.6574038,13.7173333 L51.2805769,20.8753778 C50.4053846,26.0849778 55.6729038,25.5139556 57.3542692,25.1790222 L57.8808077,22.4512 C53.8577692,23.3514667 54.3885769,20.8760889 54.3885769,20.8760889 L55.7646923,13.7194667 L55.7646923,13.7173333 Z M37.3771154,21.2216889 C34.1424615,24.5098667 32.0704615,22.3573333 32.0704615,22.3573333 C30.6687308,21.0040889 32.2184615,19.6145778 32.2184615,19.6145778 C34.3587692,17.6782222 37.6332692,19.8065778 37.6332692,19.8065778 L37.3771154,21.2216889 Z M38.0922115,17.2565333 C38.0922115,17.2565333 33.6379808,14.9916444 30.5214423,17.5125333 C30.5214423,17.5125333 28.6949231,18.72 28.6949231,21.1320889 C28.6949231,23.5448889 30.9270192,24.8412444 30.9270192,24.8412444 C30.9270192,24.8412444 34.2840577,26.5962667 36.9131923,23.7916444 L36.6235962,25.0965333 L39.5636731,25.0965333 L41.4115385,16.4138667 C42.7976154,7.84711111 32.4931154,10.8835556 32.4931154,10.8835556 L31.931,13.9626667 C39.5273846,10.6830222 38.2494615,16.3982222 38.2494615,16.3982222 L38.0929231,17.2565333 L38.0922115,17.2565333 Z M29.8604231,10.8231111 C27.4625385,10.8472889 25.2838077,12.1720889 25.2838077,12.1720889 L25.5613077,10.8721778 L22.6845577,10.8721778 L20.0589808,25.1228444 L22.9997692,25.1228444 L24.7800385,15.7468444 C26.0963846,13.0986667 29.3481154,13.9221333 29.3481154,13.9221333 L29.8604231,10.8216889 L29.8604231,10.8231111 Z M18.6408846,4.71466667 C18.7903077,4.82631111 18.9311923,4.94435556 19.0692308,5.06453333 L21.3006154,3.32942222 L21.3703462,3.23982222 C21.0254489,2.89290165 20.6559089,2.57135255 20.2646154,2.27768889 C15.1436731,-1.55164444 7.40498077,0.0512 2.97992308,5.85813333 C-1.44228846,11.6643556 -0.876615385,19.4737778 4.24361538,23.3045333 C8.42532692,26.4305778 14.3503077,25.9342222 18.7924423,22.4867556 L18.7888846,22.4782222 L16.6642308,20.8284444 C13.3719423,22.9248 9.28842308,23.0755556 6.33411538,20.8668444 C2.39930769,17.9256889 1.96526923,11.9253333 5.36428846,7.46524444 C8.76188462,3.00444444 14.7067885,1.77351111 18.6401731,4.71466667 L18.6408846,4.71466667 Z M75.665,23.9950222 C75.0172488,24.4039594 74.3228231,24.733894 73.5965577,24.9777778 C72.8444615,25.2337778 72.0311731,25.3617778 71.1574038,25.3617778 C70.1256731,25.3617778 69.1722115,25.1783111 68.2970192,24.8113778 C67.4506198,24.4645073 66.6836814,23.9491672 66.0428654,23.2967111 C65.4084262,22.6430442 64.9059361,21.873344 64.5628654,21.0296889 C64.20425,20.1621333 64.0249423,19.2305778 64.0249423,18.2307556 C64.0249423,17.2309333 64.1992692,16.2922667 64.5465,15.4147556 C64.8811678,14.5568602 65.3844013,13.7746571 66.0265,13.1143111 C66.6741012,12.453415 67.4462741,11.9272606 68.2984423,11.5662222 C69.1736346,11.1879111 70.1256731,10.9987556 71.1588269,10.9987556 C72.0318846,10.9987556 72.8451731,11.1267556 73.5972692,11.3827556 C74.3479423,11.6373333 75.0381346,11.9658667 75.6664231,12.3640889 L75.0943462,13.1982222 C74.5336538,12.8440889 73.9345385,12.5489778 73.2941538,12.3150222 C72.6566154,12.0817778 71.9443654,11.9665778 71.1595385,11.9665778 C70.2615769,11.9665778 69.4425962,12.1265778 68.7018846,12.448 C67.9889712,12.7523759 67.3433186,13.1946361 66.8020769,13.7493333 C66.2646486,14.3087977 65.846794,14.9717374 65.5739615,15.6977778 C65.2785553,16.4748117 65.1304055,17.2999977 65.1370769,18.1312 C65.1370769,18.9973333 65.2822308,19.8144 65.5739615,20.5795556 C65.8478026,21.3203684 66.2648636,22.0000715 66.8013654,22.5799111 C67.335044,23.1522817 67.9826678,23.6067025 68.7025962,23.9139556 C69.4425962,24.2375111 70.2622885,24.3975111 71.1595385,24.3975111 C71.9450769,24.3975111 72.6573269,24.2801778 73.2941538,24.0490667 C73.9345385,23.8144 74.5343654,23.52 75.0943462,23.1644444 L75.6678462,23.9964444 L75.665,23.9950222 Z M97.8030962,25.0951111 L97.8030962,15.7966222 C97.8030962,13.2650667 96.7030577,11.9971556 94.5051154,11.9971556 C93.4961538,11.9971556 92.5320192,12.2887111 91.6127115,12.8647111 C90.6926923,13.4428444 89.8744231,14.2087111 89.1564808,15.1644444 L89.1564808,25.0951111 L88.0806346,25.0951111 L88.0806346,15.7966222 C88.0806346,13.2650667 86.9813077,11.9971556 84.7840769,11.9971556 C83.7523462,11.9971556 82.7917692,12.2887111 81.9073269,12.8647111 C80.9941433,13.4660612 80.1627847,14.1831435 79.4340192,14.9980444 L79.4340192,25.0958222 L78.3574615,25.0958222 L78.3574615,11.264 L79.4005769,11.264 L79.4005769,13.8631111 C79.7136538,13.5089778 80.0722692,13.1591111 80.475,12.8142222 C80.8805769,12.4693333 81.3110577,12.1635556 81.7714231,11.8968889 C82.2310769,11.6309333 82.7305769,11.4133333 83.2692115,11.2469333 C83.8142911,11.0792744 84.381695,10.9953538 84.952,10.9980444 C85.8940769,10.9980444 86.7223077,11.2540444 87.4409615,11.7646222 C88.1581923,12.2744889 88.6406154,13.0638222 88.8875192,14.1304889 C89.5592115,13.2871111 90.4009615,12.5532444 91.4106346,11.9310222 C92.4195962,11.3102222 93.5068269,10.9980444 94.67375,10.9980444 C95.2177665,10.9952899 95.7582526,11.0854771 96.2718654,11.2647111 C96.7756346,11.4424889 97.2253269,11.7269333 97.6166731,12.1144889 C98.0080192,12.5034667 98.3175385,12.9927111 98.5416731,13.5815111 C98.7658077,14.1696 98.8782308,14.8757333 98.8782308,15.6977778 L98.8782308,25.0951111 L97.8023846,25.0951111 L97.8030962,25.0951111 Z M110.686923,21.5288889 C110.686923,22.0408889 110.587308,22.528 110.385231,22.9952 C110.184878,23.4594019 109.886303,23.8747297 109.510038,24.2126222 C109.108684,24.5679968 108.647628,24.8496641 108.148154,25.0446222 C107.621615,25.2544 107.020365,25.3610667 106.347962,25.3610667 C105.45,25.3610667 104.610385,25.2117333 103.825558,24.9116444 C103.030717,24.6060967 102.274226,24.2089869 101.571404,23.7283556 L102.074462,22.9276444 C102.707693,23.36255 103.384157,23.730962 104.093096,24.0270222 C104.788269,24.3171556 105.540365,24.4608 106.346538,24.4608 C107.356923,24.4608 108.164519,24.1934222 108.770038,23.6600889 C109.376269,23.1267556 109.678673,22.4725333 109.678673,21.6938667 C109.678673,21.0275556 109.498654,20.5006222 109.140038,20.1102222 C108.781423,19.7226667 108.32675,19.3891556 107.778154,19.1111111 C107.228846,18.8337778 106.639692,18.5827556 106.012115,18.3608889 C105.400809,18.1466535 104.809602,17.8789495 104.245365,17.5608889 C103.716725,17.2685289 103.253125,16.8717417 102.882769,16.3946667 C102.523442,15.9281778 102.344846,15.3066667 102.344846,14.528 C102.344846,14.0835556 102.439481,13.6512 102.630885,13.2280889 C102.82608,12.7989049 103.10639,12.4137706 103.454846,12.096 C103.836947,11.7480573 104.282049,11.476281 104.766212,11.2952889 C105.282788,11.0961778 105.876212,10.9944889 106.549327,10.9944889 C107.289327,10.9944889 107.990192,11.1068444 108.651212,11.3287111 C109.312942,11.5491556 109.958308,11.8833778 110.586596,12.3278222 L110.081404,13.1612444 C109.476596,12.7168 108.898827,12.3946667 108.349519,12.1941333 C107.771678,11.9894852 107.162348,11.8879109 106.549327,11.8940444 C105.472058,11.8940444 104.670865,12.1557333 104.144327,12.6784 C103.616365,13.2003556 103.352385,13.7834667 103.352385,14.4277333 C103.352385,15.0940444 103.531692,15.6224 103.891731,16.0106667 C104.250346,16.3982222 104.704308,16.7267556 105.254327,16.9934222 C105.805058,17.2586667 106.392788,17.504 107.020365,17.7258667 C107.648654,17.9484444 108.238519,18.2094222 108.787115,18.5080889 C109.336423,18.8088889 109.790385,19.1928889 110.149712,19.6586667 C110.508327,20.1258667 110.687635,20.7488 110.687635,21.5253333 L110.686923,21.5288889 Z" id="craftcms"></path>
                    </g>
                </g>
            </g>
        </g>
    </g>
</svg>